PathFileType	4	(X/Y/Z)	C:/Users/opensim2020/Desktop/walking_exp_matlab/subject01_walking09_straight_02.trc	
DataRate	CameraRate	NumFrames	NumMarkers	Units	OrigDataRate	OrigDataStartFrame	OrigNumFrames	
100.00	100.00	4	43	mm	100.00	2117	362	
Frame#	Time	LFHD			RFHD			LBHD			RBHD			C7			T10			CLAV			STRN			RBAK			LSHO			LUPA			LELB			LFRM			LWRA			LWRB			LFIN			RSHO			RUPA			RELB			RFRM			RWRA			RWRB			RFIN			LASI			RASI			LPSI			RPSI			LTHI			LKNE			LTIB			LANK			LHEE			LTOE			RTHI			RKNE			RTIB			RANK			RHEE			RTOE			*39			*40			*41			*42			
		X1	Y1	Z1	X2	Y2	Z2	X3	Y3	Z3	X4	Y4	Z4	X5	Y5	Z5	X6	Y6	Z6	X7	Y7	Z7	X8	Y8	Z8	X9	Y9	Z9	X10	Y10	Z10	X11	Y11	Z11	X12	Y12	Z12	X13	Y13	Z13	X14	Y14	Z14	X15	Y15	Z15	X16	Y16	Z16	X17	Y17	Z17	X18	Y18	Z18	X19	Y19	Z19	X20	Y20	Z20	X21	Y21	Z21	X22	Y22	Z22	X23	Y23	Z23	X24	Y24	Z24	X25	Y25	Z25	X26	Y26	Z26	X27	Y27	Z27	X28	Y28	Z28	X29	Y29	Z29	X30	Y30	Z30	X31	Y31	Z31	X32	Y32	Z32	X33	Y33	Z33	X34	Y34	Z34	X35	Y35	Z35	X36	Y36	Z36	X37	Y37	Z37	X38	Y38	Z38	X39	Y39	Z39	X40	Y40	Z40	X41	Y41	Z41	X42	Y42	Z42	X43	Y43	Z43	

227	2.260	1488.99878	-240.51968	1657.59448	1379.06189	-269.75342	1661.10962	1465.05359	-121.30294	1628.69556	1347.17200	-149.48163	1631.73181	1419.31079	-68.98944	1430.34607	1400.06445	-32.80857	1135.27942	1427.81360	-210.35422	1359.35132	1432.01233	-251.37546	1204.21411	1330.44141	-17.63999	1236.50464	1585.31189	-139.03481	1388.67151	1659.76074	-94.80411	1202.46277	1649.89063	-72.38856	1053.75098	1673.92615	-97.69845	943.71161	1659.76550	-167.09962	822.06183	1676.94299	-109.00692	821.91254	1690.53394	-148.26733	747.55420	1273.25378	-158.87704	1391.86450	1159.22034	-123.60025	1192.88953	1152.35486	-137.61838	1067.72107	1127.77234	-191.48444	958.22540	1159.31262	-291.09784	861.54156	1115.54663	-254.04079	853.57721	1119.65662	-308.69336	788.64392	1520.12207	-204.05130	932.84192	1301.76343	-210.57863	922.03522	1466.06201	-20.58571	942.93304	1321.50989	-26.04360	944.88702	1594.33337	-250.78659	617.10913	1576.27869	-280.25824	487.38907	1593.79309	-263.42438	302.90576	1553.73181	-289.93234	80.42546	1496.86414	-256.67697	40.77170	1566.80273	-437.99298	68.71719	1264.51660	-113.07605	593.10297	1296.77234	-93.69996	436.59128	1296.94653	-15.98390	278.32962	1353.31567	41.48207	80.97906	1402.48389	96.49692	50.25253	1358.54004	-93.93745	33.39665	1400.29224	-259.62976	1695.97192	-3101.92432	1973.10181	1023.36896	-3140.66748	2012.59558	1022.09436			 
228	2.270	1490.07202	-247.09512	1657.10156	1380.19080	-276.38187	1660.67053	1466.07764	-127.92419	1628.26563	1348.23999	-156.12645	1631.30518	1420.21387	-75.66924	1429.81140	1401.00354	-39.66193	1134.76721	1428.84351	-217.29759	1359.00012	1432.84338	-258.23022	1203.84290	1331.23474	-24.46468	1236.00464	1586.25549	-145.59290	1388.06384	1660.45532	-100.98941	1201.80957	1650.34912	-78.53654	1053.15283	1674.31726	-103.44617	942.98987	1659.96350	-172.50343	821.13245	1677.20374	-114.37682	821.14154	1690.69092	-153.44714	746.62231	1274.04700	-165.76967	1391.44800	1159.95447	-130.48940	1192.48193	1152.98682	-144.71490	1067.39099	1128.42969	-198.85396	957.92743	1160.10156	-298.91376	861.61780	1116.35107	-261.91788	853.35687	1120.54077	-316.53818	788.68530	1520.65417	-211.30132	932.22034	1302.27930	-217.15994	921.57111	1467.12793	-27.62804	942.52246	1322.72253	-32.54935	944.76123	1594.55396	-256.96732	616.27094	1576.68774	-286.04156	486.54788	1594.23962	-273.26053	301.86932	1554.00281	-305.64581	79.87624	1497.08032	-273.15924	39.73608	1566.38245	-454.09985	70.85754	1264.71106	-117.38287	593.06964	1296.69934	-97.23553	436.18616	1296.79199	-17.95895	278.62781	1353.19275	41.13239	81.95763	1402.38794	96.28607	51.54512	1358.07104	-94.08735	33.56657	1401.41968	-266.31589	1695.59705	-3101.92676	1973.08740	1023.39563	-3140.81738	2012.51257	1022.02667			 
229	2.280	1491.25403	-253.69919	1656.70483	1381.34595	-283.02090	1660.26123	1467.17920	-134.51469	1627.76782	1349.28259	-162.75528	1630.89771	1421.23425	-82.43714	1429.30396	1402.02966	-46.57915	1134.24023	1429.82397	-224.04292	1358.54529	1433.68274	-265.12112	1203.40710	1332.16833	-31.29478	1235.55188	1587.34460	-152.23605	1387.50757	1661.21960	-107.31550	1201.14172	1650.95862	-84.81818	1052.54138	1674.80103	-109.42694	942.33789	1660.31860	-178.16165	820.26257	1677.53589	-120.04369	820.40649	1690.96021	-158.93436	745.81647	1274.95068	-172.58032	1391.20142	1160.87952	-137.30737	1192.13306	1153.74585	-151.83820	1067.05737	1129.20288	-206.13348	957.71997	1161.05969	-306.12564	861.40027	1117.28674	-269.34616	853.41229	1121.41675	-324.11758	788.58130	1521.19824	-218.57405	931.57611	1302.80688	-223.70319	920.98334	1468.31055	-34.67391	942.17590	1323.88550	-39.22737	944.56958	1594.82104	-263.07489	615.46570	1577.14026	-291.84201	485.77808	1594.65381	-282.86145	300.90283	1554.12952	-320.23260	79.83994	1496.90234	-288.97614	38.84008	1565.97498	-469.04703	72.85565	1264.98242	-122.02168	593.00250	1296.81079	-100.75680	436.20151	1296.81360	-20.12833	279.31418	1352.98120	40.65284	82.97109	1402.33582	96.14825	53.11603	1358.24463	-94.07834	33.50560	1402.57910	-272.91544	1695.13281	-3102.03906	1973.03357	1023.95386	-3140.63550	2012.61060	1022.01526			 
230	2.290	1492.44189	-260.28320	1656.29517	1382.57629	-289.66660	1659.91846	1468.30908	-141.11124	1627.29529	1350.44666	-169.41437	1630.45459	1422.29419	-89.24287	1428.72693	1403.04602	-53.57167	1133.71289	1430.85107	-230.95905	1358.04358	1434.56702	-272.13205	1203.07520	1333.13477	-38.18188	1235.09387	1588.46912	-158.97224	1386.93787	1662.08521	-113.76530	1200.52002	1651.60938	-91.18763	1051.95190	1675.37268	-115.63032	941.66492	1660.71692	-184.04773	819.44507	1677.96216	-125.92129	819.72797	1691.33435	-164.60262	745.06256	1276.14673	-179.51430	1390.64331	1161.83801	-144.22787	1191.73608	1154.57349	-158.91122	1066.74756	1130.11755	-213.37035	957.53729	1162.04187	-313.48599	861.31781	1118.02979	-276.70071	853.09467	1122.44153	-331.53351	788.44110	1521.83301	-225.91150	930.97925	1303.36279	-230.30186	920.38916	1469.59583	-41.83823	941.84308	1325.12720	-45.86941	944.43219	1595.15344	-269.25403	614.63403	1577.55334	-297.70966	485.00119	1595.01160	-292.24503	300.06946	1554.00549	-334.01059	79.75278	1496.72498	-303.13293	38.39692	1565.34656	-482.95959	74.73637	1265.31458	-126.82251	592.88092	1296.96484	-104.71322	436.06818	1296.80383	-22.49853	280.02109	1352.77368	40.05077	84.11711	1402.08887	95.68774	54.71923	1358.06726	-94.12367	33.52575	1403.79028	-279.46704	1694.78760	-3102.03662	1973.12781	1023.94116	-3140.65601	2012.57739	1022.12219			 
